HIERARCHY
ROOT Hips
{
  OFFSET 0 89.5177 0.535
  CHANNELS 6 Xposition Yposition Zposition Zrotation Xrotation Yrotation
  JOINT Spine
  {
    OFFSET 12.0259 -0.162855 1.69034e-005
    CHANNELS 3 Zrotation Xrotation Yrotation
    JOINT Spine1
    {
      OFFSET 15.3169 -0.0121922 0
      CHANNELS 3 Zrotation Xrotation Yrotation
      JOINT Spine2
      {
        OFFSET 15.3176 -0.0121908 0
        CHANNELS 3 Zrotation Xrotation Yrotation
        JOINT Neck
        {
          OFFSET 19.9142 1.56338 0
          CHANNELS 3 Zrotation Xrotation Yrotation
          JOINT Head
          {
            OFFSET 6.92651 0 0
            CHANNELS 3 Zrotation Xrotation Yrotation
            End Site
            {
              OFFSET 20.7666 0 0
            }
          }
          JOINT LeftShoulder
          {
            OFFSET -6.20654 0.708824 7.28219
            CHANNELS 3 Zrotation Xrotation Yrotation
            JOINT LeftArm
            {
              OFFSET 14.108 0 -1.52588e-005
              CHANNELS 3 Zrotation Xrotation Yrotation
              JOINT LeftForeArm
              {
                OFFSET 28.5802 0 0
                CHANNELS 3 Zrotation Xrotation Yrotation
                JOINT LeftHand
                {
                  OFFSET 27.092 0 0
                  CHANNELS 3 Zrotation Xrotation Yrotation
                  End Site
                  {
                    OFFSET 9.55928 -0.186424 0.145352
                  }
                }
              }
            }
          }
          JOINT RightShoulder
          {
            OFFSET -6.20654 0.708866 -7.28218
            CHANNELS 3 Zrotation Xrotation Yrotation
            JOINT RightArm
            {
              OFFSET 14.108 0 1.52588e-005
              CHANNELS 3 Zrotation Xrotation Yrotation
              JOINT RightForeArm
              {
                OFFSET 28.5802 0 0
                CHANNELS 3 Zrotation Xrotation Yrotation
                JOINT RightHand
                {
                  OFFSET 27.092 0 0
                  CHANNELS 3 Zrotation Xrotation Yrotation
                  End Site
                  {
                    OFFSET 9.55929 -0.186417 -0.145354
                  }
                }
              }
            }
          }
        }
      }
    }
  }
  JOINT LeftUpLeg
  {
    OFFSET 0.005 -0.535 8.837
    CHANNELS 3 Zrotation Xrotation Yrotation
    JOINT LeftLeg
    {
      OFFSET 39.9035 0 0
      CHANNELS 3 Zrotation Xrotation Yrotation
      JOINT LeftFoot
      {
        OFFSET 39.6689 0 0
        CHANNELS 3 Zrotation Xrotation Yrotation
        JOINT LeftToe
        {
          OFFSET 10.1624 13.6296 0
          CHANNELS 3 Zrotation Xrotation Yrotation
          End Site
          {
            OFFSET 8.38147 0 0
          }
        }
      }
    }
  }
  JOINT RightUpLeg
  {
    OFFSET 0.005 -0.535 -8.837
    CHANNELS 3 Zrotation Xrotation Yrotation
    JOINT RightLeg
    {
      OFFSET 39.9035 0 0
      CHANNELS 3 Zrotation Xrotation Yrotation
      JOINT RightFoot
      {
        OFFSET 39.6689 0 0
        CHANNELS 3 Zrotation Xrotation Yrotation
        JOINT RightToe
        {
          OFFSET 10.1624 13.6296 0
          CHANNELS 3 Zrotation Xrotation Yrotation
          End Site
          {
            OFFSET 8.38147 0 0
          }
        }
      }
    }
  }
}
MOTION
Frames:	11
Frame Time:	0.0333333
186.876 89.4694 250.414 172.824 -83.4724 81.9196 -1.20522 -0.616955 -0.964895 -2.42086 -1.21293 -1.94253 -2.42086 -1.21293 -1.94254 -8.30738e-012 -9.0191e-006 -5.27751e-005 8.46283 -10.935 3.49947 -179.801 -0.604171 -71.7942 -13.8483 12.4982 58.2481 -24.6415 0 7.95139e-016 -38.9947 -42.7418 -33.3711 -178.123 4.57935 67.685 16.5437 -2.04653 -64.8405 -5.94974 0 1.59028e-015 -32.5779 38.9586 28.5634 -10.789 7.99138 -174.471 -18.4881 0 3.97569e-016 17.5248 3.02653 -6.25054 90 3.47873e-016 7.95139e-016 -9.74656 -9.75444 177.818 -18.1615 -1.59028e-015 -0 13.6476 -0.753335 1.66992 90 9.93923e-017 1.59028e-015 
186.694 89.4709 250.373 175.68 -83.4483 84.8667 -1.19802 -0.683061 -0.97869 -2.40777 -1.34494 -1.97147 -2.40777 -1.34494 -1.97148 -8.30748e-012 -9.0191e-006 -5.27751e-005 8.01424 -10.5006 3.57476 -179.866 -0.40699 -71.7629 -13.6859 12.656 58.1566 -25.3854 -3.18055e-015 1.59028e-015 -40.0827 -42.9891 -34.4922 -177.958 4.97465 67.6437 14.6326 -4.06641 -64.232 -8.11901 0 1.98785e-016 -30.2775 40.7395 26.1799 -10.6966 8.16392 -174.689 -18.4073 3.18055e-015 7.95139e-016 17.5048 2.91418 -6.0239 90 0 -0 -9.90362 -9.39338 177.644 -18.2507 -1.59028e-015 -3.97569e-016 13.5059 -0.707239 1.57605 90 -2.98177e-016 -0 
186.531 89.4694 250.351 179.566 -83.4048 88.7984 -1.19834 -0.757905 -0.970683 -2.40965 -1.49477 -1.95707 -2.40966 -1.49477 -1.95708 -8.30768e-012 -9.0191e-006 -5.27751e-005 7.66863 -9.88168 3.37132 -179.881 -0.362506 -71.8342 -13.8994 12.677 58.3059 -25.5634 -6.36111e-015 -1.59028e-015 -40.5326 -42.9991 -34.9396 -177.85 5.23951 67.6514 13.6819 -4.741 -63.9777 -9.72711 -3.18055e-015 5.1684e-015 -29.6079 41.9752 26.1435 -10.6692 8.47765 -174.807 -18.4131 0 7.95139e-016 17.5477 2.85957 -5.91526 90 7.45443e-016 -0 -10.0625 -9.14077 177.486 -18.3069 1.59028e-015 -0 13.563 -0.854238 1.87035 90 -9.93923e-017 -0 
186.416 89.4476 250.585 -173.633 -82.6344 95.6434 -1.35365 -0.759681 -0.954553 -2.72011 -1.49603 -1.92685 -2.72011 -1.49603 -1.92686 -8.30728e-012 -9.0191e-006 -5.27751e-005 7.5098 -9.32308 3.10568 -179.922 -0.241703 -71.9792 -14.199 12.5953 58.6523 -25.2246 9.54166e-015 -1.59028e-015 -39.9333 -42.7799 -34.3202 -177.806 5.3507 67.6669 13.3257 -4.2721 -64.0241 -10.243 0 1.98785e-016 -30.778 41.0552 27.0329 -11.755 9.18531 -174.797 -18.9743 0 -1.19271e-015 17.6317 2.77733 -5.75031 90 5.96354e-016 1.59028e-015 -11.8645 -11.4489 176.734 -19.539 -3.18056e-015 -3.97569e-016 15.4767 -2.90068 5.9805 90 -6.21202e-016 -0 
186.345 89.4731 250.349 -170.992 -83.2423 98.0862 -1.24294 -0.863619 -0.900174 -2.4997 -1.70693 -1.81899 -2.4997 -1.70693 -1.819 -8.30768e-012 -9.0191e-006 -5.27751e-005 7.51099 -8.87262 2.79624 -179.987 -0.0406658 -72.1023 -14.6317 12.5655 59.0776 -24.636 -3.18055e-015 -3.18055e-015 -39.4195 -42.5497 -33.8254 -177.822 5.29226 67.5948 13.3064 -2.91102 -64.1989 -9.88635 0 2.78299e-015 -32.5499 39.2555 27.8682 -10.895 9.30782 -174.654 -18.8846 -1.59028e-015 -7.95139e-016 17.7051 2.7036 -5.6015 90 -1.98785e-016 -7.95139e-016 -10.127 -8.39152 177.596 -18.0152 -3.18056e-015 -0 13.4074 -1.07246 2.30596 90 -1.2424e-016 -0 
186.298 89.4766 250.354 -165.697 -83.0734 103.235 -1.27406 -0.885323 -0.848957 -2.56155 -1.75099 -1.71751 -2.56155 -1.75099 -1.71752 -8.30748e-012 -9.0191e-006 -5.27751e-005 7.40626 -8.38614 2.37902 179.97 0.0923743 -72.1746 -15.1321 12.4773 59.4654 -23.9558 3.18055e-015 4.77083e-015 -38.6787 -42.2479 -33.0213 -177.881 5.11891 67.4726 13.0424 -1.2794 -64.4864 -9.34415 3.18055e-015 2.43511e-015 -34.0007 37.4322 28.2076 -10.9894 9.6816 -174.495 -19.0901 -1.59028e-015 -0 17.7062 2.50524 -5.20185 90 4.96962e-017 -0 -10.0832 -7.89258 177.782 -17.722 0 7.95139e-016 13.247 -1.15472 2.4697 90 9.93923e-017 1.59028e-015 
186.228 89.4714 250.542 -159.878 -82.2197 109.048 -1.42326 -0.808269 -0.824349 -2.85842 -1.59526 -1.66858 -2.85842 -1.59526 -1.66859 -8.30758e-012 -9.0191e-006 -5.27751e-005 7.18565 -7.98887 2.07954 179.878 0.380323 -72.2173 -15.631 12.5002 59.8625 -23.4379 -3.18055e-015 -1.59028e-015 -38.1408 -42.0766 -32.515 -177.934 4.95575 67.3351 12.265 0.0743228 -64.8542 -9.37757 3.18055e-015 3.08116e-015 -34.7939 36.2673 28.3832 -11.7417 10.1361 -174.483 -19.3729 -1.59028e-015 -3.97569e-016 17.6041 2.18933 -4.56792 90 0 7.95139e-016 -11.6003 -10.2166 177.141 -18.7583 -3.18056e-015 -1.98785e-015 15.2272 -3.32091 6.82749 90 -6.21202e-016 -1.59028e-015 
186.196 89.4729 250.539 -156.517 -82.0652 112.261 -1.44389 -0.800241 -0.776749 -2.89891 -1.58012 -1.57346 -2.89891 -1.58011 -1.57347 -8.30738e-012 -9.0191e-006 -5.27751e-005 6.79523 -7.49895 1.87028 179.824 0.548978 -72.2211 -16.2173 12.5912 60.2355 -23.2161 0 1.59028e-015 -38.3042 -42.0438 -32.695 -177.976 4.85652 67.3469 10.8935 0.94136 -65.3729 -10.24 -3.18055e-015 -1.19271e-015 -34.8447 36.2612 28.3023 -11.7886 10.4128 -174.31 -19.5657 0 -0 17.709 2.10622 -4.40163 90 -1.98785e-016 -7.95139e-016 -11.4736 -9.92528 177.317 -18.4957 1.59028e-015 -0 15.1845 -3.47891 7.14709 90 9.93923e-017 1.59028e-015 
186.172 89.4742 250.542 -154.218 -81.9486 114.433 -1.46426 -0.777432 -0.75097 -2.93897 -1.53489 -1.52158 -2.93897 -1.53489 -1.52159 -8.30778e-012 -9.0191e-006 -5.27751e-005 6.30766 -7.0757 1.92784 179.745 0.799548 -72.2952 -16.6733 12.7879 60.5609 -23.3709 0 -1.59028e-015 -38.0942 -42.033 -32.4407 -177.983 4.85978 67.4273 9.00774 1.24784 -65.9711 -11.9552 0 -3.97569e-016 -34.6969 37.2129 28.2692 -11.851 10.6719 -174.139 -19.7771 0 7.95139e-016 17.849 2.08221 -4.35408 90 -2.23633e-016 7.95139e-016 -11.3689 -9.70201 177.475 -18.2949 1.59028e-015 1.98785e-015 15.0379 -3.45889 7.10582 90 9.93923e-017 4.77083e-015 
186.137 89.475 250.546 -153.574 -81.8986 115.021 -1.48538 -0.768548 -0.750444 -2.98109 -1.51685 -1.52057 -2.98109 -1.51685 -1.52058 -8.30758e-012 -9.0191e-006 -5.27751e-005 5.66786 -6.67589 2.11742 179.696 0.954719 -72.3448 -17.1071 12.9612 60.7553 -23.7586 0 1.59028e-015 -37.8857 -42.0002 -32.1508 -177.976 4.89974 67.5265 6.63988 1.01477 -66.5473 -14.5105 6.36111e-015 2.38542e-015 -35.003 38.9753 29.1189 -11.8253 10.5355 -174.154 -19.7582 -7.95139e-016 7.95139e-016 17.7729 1.92059 -4.02909 90 -2.48481e-017 1.59028e-015 -11.3448 -9.68899 177.511 -18.2021 -4.77083e-015 -3.97569e-016 15.0116 -3.52315 7.23534 90 -1.59028e-015 -0 
186.092 89.474 250.548 -154.187 -81.9062 114.368 -1.50563 -0.756328 -0.76639 -3.02162 -1.49172 -1.5524 -3.02162 -1.49172 -1.55241 -8.30763e-012 -9.0191e-006 -5.27751e-005 4.93888 -6.41212 2.37943 179.644 1.11855 -72.3599 -17.4613 13.1769 60.8728 -24.4191 -6.36111e-015 -1.59028e-015 -37.9595 -42.2332 -32.3964 -177.954 4.97566 67.6093 4.19926 0.610853 -67.0665 -17.4561 -3.18055e-015 -0 -35.5142 40.9435 30.1181 -11.906 10.4848 -174.153 -19.8103 3.18055e-015 1.59028e-015 17.8051 1.92325 -4.03426 90 4.96962e-017 -1.59028e-015 -11.3624 -9.78384 177.504 -18.1748 0 -7.95139e-016 14.9922 -3.56181 7.31348 90 4.47266e-016 -1.59028e-015 
